# xmcd CD database file
# Generated: Sat Sep 29 09:39:07 2001 by KSCD
# 
# Track frame offsets:
#       150
#       9713
#       25885
#       39168
#       55933
#       65445
#       81523
#       107583
#       120060
#       135623
#
# Disc length: 2050 seconds
#
# Revision: 2
# Processed by: cddbd v1.4PL0 Copyright (c) Steve Scherf et al.
# Submitted via: Kscd 1.3.0
#
DISCID=7708000a
DTITLE=Blues Brothers - Made In America
DYEAR=1900
DGENRE=
TTITLE0=Soul Finger
TTITLE1=Who's Making Love
TTITLE2=Do You Love Me
TTITLE3=Guilty
TTITLE4=Perry Mason Theme
TTITLE5=Riot In Cell Block Number Nine
TTITLE6=Green Onions
TTITLE7=I Ain't Got You
TTITLE8=From the Bottom
TTITLE9=Going Back to Miami
EXTD=
EXTT0=
EXTT1=
EXTT2=
EXTT3=
EXTT4=
EXTT5=
EXTT6=
EXTT7=
EXTT8=
EXTT9=
PLAYORDER=
